# xmcd
#
# Track frame offsets:
#	150
#	14986
#	29413
#	43326
#	56274
#	69177
#	83089
#	97346
#	110667
#	123888
#	135337
#	147515
#	160590
#	173830
#	186829
#	197466
#	212457
#	226508
#	238886
#	251037
#
# Disc length: 3514 seconds
# Revision: 0
# Processed by: cddbd v1.5.2PL0 Copyright (c) Steve Scherf et al.
# Submitted via: dBpowerAMP V12.0
#
DISCID=150db814
DTITLE=Muddy Waters - The Blues
DYEAR=2012
DGENRE=Blues
TTITLE0=Baby please don't go
TTITLE1=Blow wind blow
TTITLE2=Mad love (I want you to love me)
TTITLE3=(I'm your) Hoochie coochie man
TTITLE4=I just want to make love to you
TTITLE5=I'm ready
TTITLE6=Smokestack lightning
TTITLE7=Mannish boy
TTITLE8=I got to find my baby
TTITLE9=Sugar sweet
TTITLE10=Trouble no more
TTITLE11=Forty days and forty nights
TTITLE12=All aboard
TTITLE13=Got my mojo working
TTITLE14=Evil
TTITLE15=She's 19 years old
TTITLE16=Close to you
TTITLE17=Walking thru the park
TTITLE18=Blues before sunrise
TTITLE19=Mean mistreater
EXTD=
EXTT0=
EXTT1=
EXTT2=
EXTT3=
EXTT4=
EXTT5=
EXTT6=
EXTT7=
EXTT8=
EXTT9=
EXTT10=
EXTT11=
EXTT12=
EXTT13=
EXTT14=
EXTT15=
EXTT16=
EXTT17=
EXTT18=
EXTT19=
PLAYORDER=
